# Tiled2Unity generated file. Do not modify by hand.
# Wavefront file for '(Febuary-16th)-Prairies---Boreal-Forest_mesh_0008.obj'

# Vertices (Count = 592)
v -324 -162 0
v -326 -162 0
v -326 -160 0
v -324 -160 0
v -334 -162 0
v -336 -162 0
v -336 -160 0
v -334 -160 0
v -324 -164 0
v -326 -164 0
v -326 -162 0
v -324 -162 0
v -334 -164 0
v -336 -164 0
v -336 -162 0
v -334 -162 0
v -356 -164 0
v -358 -164 0
v -358 -162 0
v -356 -162 0
v -324 -166 0
v -326 -166 0
v -326 -164 0
v -324 -164 0
v -334 -166 0
v -336 -166 0
v -336 -164 0
v -334 -164 0
v -344 -166 0
v -346 -166 0
v -346 -164 0
v -344 -164 0
v -356 -166 0
v -358 -166 0
v -358 -164 0
v -356 -164 0
v -28 -168 0
v -30 -168 0
v -30 -166 0
v -28 -166 0
v -324 -168 0
v -326 -168 0
v -326 -166 0
v -324 -166 0
v -334 -168 0
v -336 -168 0
v -336 -166 0
v -334 -166 0
v -344 -168 0
v -346 -168 0
v -346 -166 0
v -344 -166 0
v -356 -168 0
v -358 -168 0
v -358 -166 0
v -356 -166 0
v -28 -170 0
v -30 -170 0
v -30 -168 0
v -28 -168 0
v -36 -170 0
v -38 -170 0
v -38 -168 0
v -36 -168 0
v -284 -170 0
v -286 -170 0
v -286 -168 0
v -284 -168 0
v -330 -170 0
v -332 -170 0
v -332 -168 0
v -330 -168 0
v -344 -170 0
v -346 -170 0
v -346 -168 0
v -344 -168 0
v -28 -172 0
v -30 -172 0
v -30 -170 0
v -28 -170 0
v -36 -172 0
v -38 -172 0
v -38 -170 0
v -36 -170 0
v -284 -172 0
v -286 -172 0
v -286 -170 0
v -284 -170 0
v -330 -172 0
v -332 -172 0
v -332 -170 0
v -330 -170 0
v -344 -172 0
v -346 -172 0
v -346 -170 0
v -344 -170 0
v -36 -174 0
v -38 -174 0
v -38 -172 0
v -36 -172 0
v -266 -174 0
v -268 -174 0
v -268 -172 0
v -266 -172 0
v -284 -174 0
v -286 -174 0
v -286 -172 0
v -284 -172 0
v -330 -174 0
v -332 -174 0
v -332 -172 0
v -330 -172 0
v -356 -174 0
v -358 -174 0
v -358 -172 0
v -356 -172 0
v -16 -176 0
v -18 -176 0
v -18 -174 0
v -16 -174 0
v -36 -176 0
v -38 -176 0
v -38 -174 0
v -36 -174 0
v -42 -176 0
v -44 -176 0
v -44 -174 0
v -42 -174 0
v -266 -176 0
v -268 -176 0
v -268 -174 0
v -266 -174 0
v -296 -176 0
v -298 -176 0
v -298 -174 0
v -296 -174 0
v -356 -176 0
v -358 -176 0
v -358 -174 0
v -356 -174 0
v -366 -176 0
v -368 -176 0
v -368 -174 0
v -366 -174 0
v -16 -178 0
v -18 -178 0
v -18 -176 0
v -16 -176 0
v -42 -178 0
v -44 -178 0
v -44 -176 0
v -42 -176 0
v -266 -178 0
v -268 -178 0
v -268 -176 0
v -266 -176 0
v -274 -178 0
v -276 -178 0
v -276 -176 0
v -274 -176 0
v -296 -178 0
v -298 -178 0
v -298 -176 0
v -296 -176 0
v -348 -178 0
v -350 -178 0
v -350 -176 0
v -348 -176 0
v -356 -178 0
v -358 -178 0
v -358 -176 0
v -356 -176 0
v -366 -178 0
v -368 -178 0
v -368 -176 0
v -366 -176 0
v -16 -180 0
v -18 -180 0
v -18 -178 0
v -16 -178 0
v -42 -180 0
v -44 -180 0
v -44 -178 0
v -42 -178 0
v -274 -180 0
v -276 -180 0
v -276 -178 0
v -274 -178 0
v -296 -180 0
v -298 -180 0
v -298 -178 0
v -296 -178 0
v -348 -180 0
v -350 -180 0
v -350 -178 0
v -348 -178 0
v -366 -180 0
v -368 -180 0
v -368 -178 0
v -366 -178 0
v -20 -182 0
v -22 -182 0
v -22 -180 0
v -20 -180 0
v -42 -182 0
v -44 -182 0
v -44 -180 0
v -42 -180 0
v -274 -182 0
v -276 -182 0
v -276 -180 0
v -274 -180 0
v -296 -182 0
v -298 -182 0
v -298 -180 0
v -296 -180 0
v -348 -182 0
v -350 -182 0
v -350 -180 0
v -348 -180 0
v -366 -182 0
v -368 -182 0
v -368 -180 0
v -366 -180 0
v -20 -184 0
v -22 -184 0
v -22 -182 0
v -20 -182 0
v -32 -184 0
v -34 -184 0
v -34 -182 0
v -32 -182 0
v -274 -184 0
v -276 -184 0
v -276 -182 0
v -274 -182 0
v -20 -186 0
v -22 -186 0
v -22 -184 0
v -20 -184 0
v -32 -186 0
v -34 -186 0
v -34 -184 0
v -32 -184 0
v -40 -186 0
v -42 -186 0
v -42 -184 0
v -40 -184 0
v -284 -186 0
v -286 -186 0
v -286 -184 0
v -284 -184 0
v -20 -188 0
v -22 -188 0
v -22 -186 0
v -20 -186 0
v -32 -188 0
v -34 -188 0
v -34 -186 0
v -32 -186 0
v -40 -188 0
v -42 -188 0
v -42 -186 0
v -40 -186 0
v -284 -188 0
v -286 -188 0
v -286 -186 0
v -284 -186 0
v -32 -190 0
v -34 -190 0
v -34 -188 0
v -32 -188 0
v -40 -190 0
v -42 -190 0
v -42 -188 0
v -40 -188 0
v -284 -190 0
v -286 -190 0
v -286 -188 0
v -284 -188 0
v -296 -202 0
v -298 -202 0
v -298 -200 0
v -296 -200 0
v -296 -204 0
v -298 -204 0
v -298 -202 0
v -296 -202 0
v -296 -206 0
v -298 -206 0
v -298 -204 0
v -296 -204 0
v -296 -208 0
v -298 -208 0
v -298 -206 0
v -296 -206 0
v -300 -208 0
v -302 -208 0
v -302 -206 0
v -300 -206 0
v -306 -208 0
v -308 -208 0
v -308 -206 0
v -306 -206 0
v -300 -210 0
v -302 -210 0
v -302 -208 0
v -300 -208 0
v -306 -210 0
v -308 -210 0
v -308 -208 0
v -306 -208 0
v -300 -212 0
v -302 -212 0
v -302 -210 0
v -300 -210 0
v -306 -212 0
v -308 -212 0
v -308 -210 0
v -306 -210 0
v -306 -214 0
v -308 -214 0
v -308 -212 0
v -306 -212 0
v -322 -218 0
v -324 -218 0
v -324 -216 0
v -322 -216 0
v -322 -220 0
v -324 -220 0
v -324 -218 0
v -322 -218 0
v -322 -222 0
v -324 -222 0
v -324 -220 0
v -322 -220 0
v -304 -226 0
v -306 -226 0
v -306 -224 0
v -304 -224 0
v -304 -228 0
v -306 -228 0
v -306 -226 0
v -304 -226 0
v -304 -230 0
v -306 -230 0
v -306 -228 0
v -304 -228 0
v -240 -244 0
v -242 -244 0
v -242 -242 0
v -240 -242 0
v -216 -246 0
v -218 -246 0
v -218 -244 0
v -216 -244 0
v -240 -246 0
v -242 -246 0
v -242 -244 0
v -240 -244 0
v -216 -248 0
v -218 -248 0
v -218 -246 0
v -216 -246 0
v -240 -248 0
v -242 -248 0
v -242 -246 0
v -240 -246 0
v -216 -250 0
v -218 -250 0
v -218 -248 0
v -216 -248 0
v -216 -252 0
v -218 -252 0
v -218 -250 0
v -216 -250 0
v -226 -260 0
v -228 -260 0
v -228 -258 0
v -226 -258 0
v -246 -260 0
v -248 -260 0
v -248 -258 0
v -246 -258 0
v -226 -262 0
v -228 -262 0
v -228 -260 0
v -226 -260 0
v -246 -262 0
v -248 -262 0
v -248 -260 0
v -246 -260 0
v -220 -264 0
v -222 -264 0
v -222 -262 0
v -220 -262 0
v -226 -264 0
v -228 -264 0
v -228 -262 0
v -226 -262 0
v -246 -264 0
v -248 -264 0
v -248 -262 0
v -246 -262 0
v -220 -266 0
v -222 -266 0
v -222 -264 0
v -220 -264 0
v -218 -268 0
v -220 -268 0
v -220 -266 0
v -218 -266 0
v -220 -268 0
v -222 -268 0
v -222 -266 0
v -220 -266 0
v -218 -270 0
v -220 -270 0
v -220 -268 0
v -218 -268 0
v -224 -270 0
v -226 -270 0
v -226 -268 0
v -224 -268 0
v -218 -272 0
v -220 -272 0
v -220 -270 0
v -218 -270 0
v -224 -272 0
v -226 -272 0
v -226 -270 0
v -224 -270 0
v -224 -274 0
v -226 -274 0
v -226 -272 0
v -224 -272 0
v -296 -282 0
v -298 -282 0
v -298 -280 0
v -296 -280 0
v -296 -284 0
v -298 -284 0
v -298 -282 0
v -296 -282 0
v -296 -286 0
v -298 -286 0
v -298 -284 0
v -296 -284 0
v -296 -288 0
v -298 -288 0
v -298 -286 0
v -296 -286 0
v -300 -288 0
v -302 -288 0
v -302 -286 0
v -300 -286 0
v -300 -290 0
v -302 -290 0
v -302 -288 0
v -300 -288 0
v -300 -292 0
v -302 -292 0
v -302 -290 0
v -300 -290 0
v -288 -294 0
v -290 -294 0
v -290 -292 0
v -288 -292 0
v -288 -296 0
v -290 -296 0
v -290 -294 0
v -288 -294 0
v -310 -296 0
v -312 -296 0
v -312 -294 0
v -310 -294 0
v -288 -298 0
v -290 -298 0
v -290 -296 0
v -288 -296 0
v -310 -298 0
v -312 -298 0
v -312 -296 0
v -310 -296 0
v -300 -300 0
v -302 -300 0
v -302 -298 0
v -300 -298 0
v -310 -300 0
v -312 -300 0
v -312 -298 0
v -310 -298 0
v -300 -302 0
v -302 -302 0
v -302 -300 0
v -300 -300 0
v -310 -302 0
v -312 -302 0
v -312 -300 0
v -310 -300 0
v -482 -302 0
v -484 -302 0
v -484 -300 0
v -482 -300 0
v -300 -304 0
v -302 -304 0
v -302 -302 0
v -300 -302 0
v -478 -304 0
v -480 -304 0
v -480 -302 0
v -478 -302 0
v -482 -304 0
v -484 -304 0
v -484 -302 0
v -482 -302 0
v -470 -306 0
v -472 -306 0
v -472 -304 0
v -470 -304 0
v -478 -306 0
v -480 -306 0
v -480 -304 0
v -478 -304 0
v -482 -306 0
v -484 -306 0
v -484 -304 0
v -482 -304 0
v -470 -308 0
v -472 -308 0
v -472 -306 0
v -470 -306 0
v -478 -308 0
v -480 -308 0
v -480 -306 0
v -478 -306 0
v -470 -310 0
v -472 -310 0
v -472 -308 0
v -470 -308 0
v -478 -310 0
v -480 -310 0
v -480 -308 0
v -478 -308 0
v -470 -312 0
v -472 -312 0
v -472 -310 0
v -470 -310 0
v -476 -312 0
v -478 -312 0
v -478 -310 0
v -476 -310 0
v -476 -314 0
v -478 -314 0
v -478 -312 0
v -476 -312 0
v -492 -314 0
v -494 -314 0
v -494 -312 0
v -492 -312 0
v -476 -316 0
v -478 -316 0
v -478 -314 0
v -476 -314 0
v -492 -316 0
v -494 -316 0
v -494 -314 0
v -492 -314 0
v -476 -318 0
v -478 -318 0
v -478 -316 0
v -476 -316 0
v -492 -318 0
v -494 -318 0
v -494 -316 0
v -492 -316 0
v -492 -320 0
v -494 -320 0
v -494 -318 0
v -492 -318 0
v -488 -324 0
v -490 -324 0
v -490 -322 0
v -488 -322 0
v -488 -326 0
v -490 -326 0
v -490 -324 0
v -488 -324 0
v -488 -328 0
v -490 -328 0
v -490 -326 0
v -488 -326 0

# Texture cooridinates (Count = 24)
vt 0.5971074 0.3231939
vt 0.6136364 0.3231939
vt 0.6136364 0.3536122
vt 0.5971074 0.3536122
vt 0.4741735 0.3231939
vt 0.4907025 0.3231939
vt 0.4907025 0.3536122
vt 0.4741735 0.3536122
vt 0.6146694 0.3555133
vt 0.6311983 0.3555133
vt 0.6311983 0.3859316
vt 0.6146694 0.3859316
vt 0.4917355 0.3555133
vt 0.5082645 0.3555133
vt 0.5082645 0.3859316
vt 0.4917355 0.3859316
vt 0.6146694 0.3231939
vt 0.6311983 0.3231939
vt 0.6311983 0.3536122
vt 0.6146694 0.3536122
vt 0.4917355 0.3231939
vt 0.5082645 0.3231939
vt 0.5082645 0.3536122
vt 0.4917355 0.3536122

# Normal
vn 0 0 -1

# Mesh description
g (Febuary-16th)-Prairies---Boreal-Forest_mesh_0008

# Faces
f 1/1/1 2/2/1 3/3/1 4/4/1
f 5/5/1 6/6/1 7/7/1 8/8/1
f 9/9/1 10/10/1 11/11/1 12/12/1
f 13/13/1 14/14/1 15/15/1 16/16/1
f 17/1/1 18/2/1 19/3/1 20/4/1
f 21/9/1 22/10/1 23/11/1 24/12/1
f 25/13/1 26/14/1 27/15/1 28/16/1
f 29/1/1 30/2/1 31/3/1 32/4/1
f 33/9/1 34/10/1 35/11/1 36/12/1
f 37/5/1 38/6/1 39/7/1 40/8/1
f 41/17/1 42/18/1 43/19/1 44/20/1
f 45/21/1 46/22/1 47/23/1 48/24/1
f 49/9/1 50/10/1 51/11/1 52/12/1
f 53/17/1 54/18/1 55/19/1 56/20/1
f 57/13/1 58/14/1 59/15/1 60/16/1
f 61/1/1 62/2/1 63/3/1 64/4/1
f 65/1/1 66/2/1 67/3/1 68/4/1
f 69/5/1 70/6/1 71/7/1 72/8/1
f 73/9/1 74/10/1 75/11/1 76/12/1
f 77/21/1 78/22/1 79/23/1 80/24/1
f 81/9/1 82/10/1 83/11/1 84/12/1
f 85/9/1 86/10/1 87/11/1 88/12/1
f 89/13/1 90/14/1 91/15/1 92/16/1
f 93/17/1 94/18/1 95/19/1 96/20/1
f 97/9/1 98/10/1 99/11/1 100/12/1
f 101/5/1 102/6/1 103/7/1 104/8/1
f 105/17/1 106/18/1 107/19/1 108/20/1
f 109/21/1 110/22/1 111/23/1 112/24/1
f 113/5/1 114/6/1 115/7/1 116/8/1
f 117/1/1 118/2/1 119/3/1 120/4/1
f 121/17/1 122/18/1 123/19/1 124/20/1
f 125/1/1 126/2/1 127/3/1 128/4/1
f 129/13/1 130/14/1 131/15/1 132/16/1
f 133/5/1 134/6/1 135/7/1 136/8/1
f 137/13/1 138/14/1 139/15/1 140/16/1
f 141/1/1 142/2/1 143/3/1 144/4/1
f 145/9/1 146/10/1 147/11/1 148/12/1
f 149/9/1 150/10/1 151/11/1 152/12/1
f 153/21/1 154/22/1 155/23/1 156/24/1
f 157/1/1 158/2/1 159/3/1 160/4/1
f 161/13/1 162/14/1 163/15/1 164/16/1
f 165/1/1 166/2/1 167/3/1 168/4/1
f 169/21/1 170/22/1 171/23/1 172/24/1
f 173/9/1 174/10/1 175/11/1 176/12/1
f 177/17/1 178/18/1 179/19/1 180/20/1
f 181/9/1 182/10/1 183/11/1 184/12/1
f 185/9/1 186/10/1 187/11/1 188/12/1
f 189/13/1 190/14/1 191/15/1 192/16/1
f 193/9/1 194/10/1 195/11/1 196/12/1
f 197/9/1 198/10/1 199/11/1 200/12/1
f 201/5/1 202/6/1 203/7/1 204/8/1
f 205/17/1 206/18/1 207/19/1 208/20/1
f 209/9/1 210/10/1 211/11/1 212/12/1
f 213/21/1 214/22/1 215/23/1 216/24/1
f 217/17/1 218/18/1 219/19/1 220/20/1
f 221/17/1 222/18/1 223/19/1 224/20/1
f 225/13/1 226/14/1 227/15/1 228/16/1
f 229/1/1 230/2/1 231/3/1 232/4/1
f 233/17/1 234/18/1 235/19/1 236/20/1
f 237/13/1 238/14/1 239/15/1 240/16/1
f 241/9/1 242/10/1 243/11/1 244/12/1
f 245/5/1 246/6/1 247/7/1 248/8/1
f 249/1/1 250/2/1 251/3/1 252/4/1
f 253/21/1 254/22/1 255/23/1 256/24/1
f 257/9/1 258/10/1 259/11/1 260/12/1
f 261/13/1 262/14/1 263/15/1 264/16/1
f 265/9/1 266/10/1 267/11/1 268/12/1
f 269/17/1 270/18/1 271/19/1 272/20/1
f 273/21/1 274/22/1 275/23/1 276/24/1
f 277/17/1 278/18/1 279/19/1 280/20/1
f 281/5/1 282/6/1 283/7/1 284/8/1
f 285/13/1 286/14/1 287/15/1 288/16/1
f 289/13/1 290/14/1 291/15/1 292/16/1
f 293/21/1 294/22/1 295/23/1 296/24/1
f 297/1/1 298/2/1 299/3/1 300/4/1
f 301/1/1 302/2/1 303/3/1 304/4/1
f 305/9/1 306/10/1 307/11/1 308/12/1
f 309/9/1 310/10/1 311/11/1 312/12/1
f 313/17/1 314/18/1 315/19/1 316/20/1
f 317/9/1 318/10/1 319/11/1 320/12/1
f 321/17/1 322/18/1 323/19/1 324/20/1
f 325/5/1 326/6/1 327/7/1 328/8/1
f 329/13/1 330/14/1 331/15/1 332/16/1
f 333/21/1 334/22/1 335/23/1 336/24/1
f 337/1/1 338/2/1 339/3/1 340/4/1
f 341/9/1 342/10/1 343/11/1 344/12/1
f 345/17/1 346/18/1 347/19/1 348/20/1
f 349/1/1 350/2/1 351/3/1 352/4/1
f 353/5/1 354/6/1 355/7/1 356/8/1
f 357/9/1 358/10/1 359/11/1 360/12/1
f 361/13/1 362/14/1 363/15/1 364/16/1
f 365/17/1 366/18/1 367/19/1 368/20/1
f 369/13/1 370/14/1 371/15/1 372/16/1
f 373/21/1 374/22/1 375/23/1 376/24/1
f 377/1/1 378/2/1 379/3/1 380/4/1
f 381/5/1 382/6/1 383/7/1 384/8/1
f 385/9/1 386/10/1 387/11/1 388/12/1
f 389/13/1 390/14/1 391/15/1 392/16/1
f 393/5/1 394/6/1 395/7/1 396/8/1
f 397/17/1 398/18/1 399/19/1 400/20/1
f 401/21/1 402/22/1 403/23/1 404/24/1
f 405/13/1 406/14/1 407/15/1 408/16/1
f 409/1/1 410/2/1 411/3/1 412/4/1
f 413/21/1 414/22/1 415/23/1 416/24/1
f 417/9/1 418/10/1 419/11/1 420/12/1
f 421/1/1 422/2/1 423/3/1 424/4/1
f 425/17/1 426/18/1 427/19/1 428/20/1
f 429/9/1 430/10/1 431/11/1 432/12/1
f 433/17/1 434/18/1 435/19/1 436/20/1
f 437/5/1 438/6/1 439/7/1 440/8/1
f 441/13/1 442/14/1 443/15/1 444/16/1
f 445/13/1 446/14/1 447/15/1 448/16/1
f 449/21/1 450/22/1 451/23/1 452/24/1
f 453/1/1 454/2/1 455/3/1 456/4/1
f 457/9/1 458/10/1 459/11/1 460/12/1
f 461/17/1 462/18/1 463/19/1 464/20/1
f 465/1/1 466/2/1 467/3/1 468/4/1
f 469/9/1 470/10/1 471/11/1 472/12/1
f 473/1/1 474/2/1 475/3/1 476/4/1
f 477/17/1 478/18/1 479/19/1 480/20/1
f 481/9/1 482/10/1 483/11/1 484/12/1
f 485/5/1 486/6/1 487/7/1 488/8/1
f 489/9/1 490/10/1 491/11/1 492/12/1
f 493/13/1 494/14/1 495/15/1 496/16/1
f 497/17/1 498/18/1 499/19/1 500/20/1
f 501/1/1 502/2/1 503/3/1 504/4/1
f 505/21/1 506/22/1 507/23/1 508/24/1
f 509/5/1 510/6/1 511/7/1 512/8/1
f 513/9/1 514/10/1 515/11/1 516/12/1
f 517/1/1 518/2/1 519/3/1 520/4/1
f 521/13/1 522/14/1 523/15/1 524/16/1
f 525/17/1 526/18/1 527/19/1 528/20/1
f 529/9/1 530/10/1 531/11/1 532/12/1
f 533/13/1 534/14/1 535/15/1 536/16/1
f 537/9/1 538/10/1 539/11/1 540/12/1
f 541/21/1 542/22/1 543/23/1 544/24/1
f 545/17/1 546/18/1 547/19/1 548/20/1
f 549/1/1 550/2/1 551/3/1 552/4/1
f 553/9/1 554/10/1 555/11/1 556/12/1
f 557/1/1 558/2/1 559/3/1 560/4/1
f 561/9/1 562/10/1 563/11/1 564/12/1
f 565/9/1 566/10/1 567/11/1 568/12/1
f 569/17/1 570/18/1 571/19/1 572/20/1
f 573/9/1 574/10/1 575/11/1 576/12/1
f 577/17/1 578/18/1 579/19/1 580/20/1
f 581/5/1 582/6/1 583/7/1 584/8/1
f 585/13/1 586/14/1 587/15/1 588/16/1
f 589/21/1 590/22/1 591/23/1 592/24/1

