# Tiled2Unity generated file. Do not modify by hand.
# Wavefront file for '(Febuary-16th)-Prairies---Boreal-Forest_mesh_0011.obj'

# Vertices (Count = 36)
v -282 -344 0
v -284 -344 0
v -284 -342 0
v -282 -342 0
v -284 -344 0
v -286 -344 0
v -286 -342 0
v -284 -342 0
v -286 -344 0
v -288 -344 0
v -288 -342 0
v -286 -342 0
v -282 -346 0
v -284 -346 0
v -284 -344 0
v -282 -344 0
v -284 -346 0
v -286 -346 0
v -286 -344 0
v -284 -344 0
v -286 -346 0
v -288 -346 0
v -288 -344 0
v -286 -344 0
v -282 -348 0
v -284 -348 0
v -284 -346 0
v -282 -346 0
v -284 -348 0
v -286 -348 0
v -286 -346 0
v -284 -346 0
v -286 -348 0
v -288 -348 0
v -288 -346 0
v -286 -346 0

# Texture cooridinates (Count = 36)
vt 0.7256098 0.390164
vt 0.7581301 0.390164
vt 0.7581301 0.442623
vt 0.7256098 0.442623
vt 0.7601626 0.390164
vt 0.7926829 0.390164
vt 0.7926829 0.442623
vt 0.7601626 0.442623
vt 0.7947155 0.390164
vt 0.8272358 0.390164
vt 0.8272358 0.442623
vt 0.7947155 0.442623
vt 0.7256098 0.3344262
vt 0.7581301 0.3344262
vt 0.7581301 0.3868852
vt 0.7256098 0.3868852
vt 0.7601626 0.3344262
vt 0.7926829 0.3344262
vt 0.7926829 0.3868852
vt 0.7601626 0.3868852
vt 0.7947155 0.3344262
vt 0.8272358 0.3344262
vt 0.8272358 0.3868852
vt 0.7947155 0.3868852
vt 0.7256098 0.2786885
vt 0.7581301 0.2786885
vt 0.7581301 0.3311476
vt 0.7256098 0.3311476
vt 0.7601626 0.2786885
vt 0.7926829 0.2786885
vt 0.7926829 0.3311476
vt 0.7601626 0.3311476
vt 0.7947155 0.2786885
vt 0.8272358 0.2786885
vt 0.8272358 0.3311476
vt 0.7947155 0.3311476

# Normal
vn 0 0 -1

# Mesh description
g (Febuary-16th)-Prairies---Boreal-Forest_mesh_0011

# Faces
f 1/1/1 2/2/1 3/3/1 4/4/1
f 5/5/1 6/6/1 7/7/1 8/8/1
f 9/9/1 10/10/1 11/11/1 12/12/1
f 13/13/1 14/14/1 15/15/1 16/16/1
f 17/17/1 18/18/1 19/19/1 20/20/1
f 21/21/1 22/22/1 23/23/1 24/24/1
f 25/25/1 26/26/1 27/27/1 28/28/1
f 29/29/1 30/30/1 31/31/1 32/32/1
f 33/33/1 34/34/1 35/35/1 36/36/1

